<mxfile host="app.diagrams.net" modified="2023-06-13T02:27:25.805Z" agent="Mozilla/5.0 (Windows NT 10.0; Win64; x64) AppleWebKit/537.36 (KHTML, like Gecko) Chrome/114.0.0.0 Safari/537.36" etag="sAODbXG9dUECOYELOWe3" version="21.3.8" type="github">
  <diagram name="第 1 页" id="_aVb6q6nFWXmBbJljMNa">
    <mxGraphModel dx="1195" dy="630" grid="1" gridSize="10" guides="1" tooltips="1" connect="1" arrows="1" fold="1" page="1" pageScale="1" pageWidth="827" pageHeight="1169" math="0" shadow="0">
      <root>
        <mxCell id="0" />
        <mxCell id="1" parent="0" />
        <mxCell id="9mAC8KNlgIXhY1BPnSoz-1" value="" style="rounded=0;whiteSpace=wrap;html=1;fontFamily=JetBrains Mono;" vertex="1" parent="1">
          <mxGeometry x="108" y="80" width="611.5" height="470" as="geometry" />
        </mxCell>
        <mxCell id="9mAC8KNlgIXhY1BPnSoz-3" value="&lt;font face=&quot;JetBrains Mono&quot;&gt;MySQL Server&lt;/font&gt;" style="text;html=1;align=center;verticalAlign=middle;resizable=0;points=[];autosize=1;strokeColor=none;fillColor=none;" vertex="1" parent="1">
          <mxGeometry x="359" y="38" width="110" height="30" as="geometry" />
        </mxCell>
        <mxCell id="9mAC8KNlgIXhY1BPnSoz-4" value="连接器" style="rounded=0;whiteSpace=wrap;html=1;" vertex="1" parent="1">
          <mxGeometry x="150" y="110" width="550" height="60" as="geometry" />
        </mxCell>
        <mxCell id="9mAC8KNlgIXhY1BPnSoz-5" value="分析器" style="rounded=1;whiteSpace=wrap;html=1;" vertex="1" parent="1">
          <mxGeometry x="414" y="210" width="231" height="80" as="geometry" />
        </mxCell>
        <mxCell id="9mAC8KNlgIXhY1BPnSoz-6" value="查询缓存" style="rounded=0;whiteSpace=wrap;html=1;" vertex="1" parent="1">
          <mxGeometry x="150" y="220" width="120" height="60" as="geometry" />
        </mxCell>
        <mxCell id="9mAC8KNlgIXhY1BPnSoz-7" value="分析器" style="rounded=1;whiteSpace=wrap;html=1;" vertex="1" parent="1">
          <mxGeometry x="414" y="340" width="231" height="80" as="geometry" />
        </mxCell>
      </root>
    </mxGraphModel>
  </diagram>
</mxfile>
